<?xml version="1.0" encoding="UTF-8" standalone="no"?>
<!DOCTYPE svg PUBLIC "-//W3C//DTD SVG 20010904//EN"
              "http://www.w3.org/TR/2001/REC-SVG-20010904/DTD/svg10.dtd">

<svg xmlns="http://www.w3.org/2000/svg"
     width="5.55486in" height="2.08307in"
     viewBox="0 0 400 150">
  <path id="Selection"
        fill="none" stroke="black" stroke-width="1"
        d="M 103.00,0.11
           C 103.00,0.11 158.00,0.11 158.00,0.11
             158.00,0.11 322.00,0.11 322.00,0.11
             347.47,0.04 371.43,10.86 386.23,32.00
             412.27,69.20 398.69,124.93 356.00,142.99
             345.52,147.42 333.38,149.98 322.00,150.00
             322.00,150.00 86.00,150.00 86.00,150.00
             66.08,149.92 48.87,148.04 32.00,136.23
             -5.61,109.90 -10.37,54.44 22.04,22.04
             37.50,6.58 51.42,3.33 72.00,0.11
             72.00,0.11 103.00,0.11 103.00,0.11 Z" />
</svg>
